<svg  viewBox="0 0 72 32" fill="none" xmlns="http://www.w3.org/2000/svg">
<path d="M13.146 26.5H1.358V16.504H2.618V25.38H6.608V16.504H7.868V25.38H11.872V16.504H13.146V26.5ZM22.1495 26.5L20.9455 23.406H16.9835L15.7935 26.5H14.5195L18.4255 16.462H19.5595L23.4515 26.5H22.1495ZM19.4475 19.262C19.4195 19.1873 19.3729 19.052 19.3075 18.856C19.2422 18.66 19.1769 18.4593 19.1115 18.254C19.0555 18.0393 19.0089 17.876 18.9715 17.764C18.9249 17.9507 18.8735 18.142 18.8175 18.338C18.7709 18.5247 18.7195 18.6973 18.6635 18.856C18.6169 19.0147 18.5749 19.15 18.5375 19.262L17.4035 22.286H20.5675L19.4475 19.262ZM27.4649 16.504C28.7716 16.504 29.7236 16.7607 30.3209 17.274C30.9183 17.7873 31.2169 18.5107 31.2169 19.444C31.2169 19.8547 31.1469 20.2513 31.0069 20.634C30.8763 21.0073 30.6569 21.3433 30.3489 21.642C30.0409 21.9407 29.6303 22.1787 29.1169 22.356C28.6036 22.524 27.9736 22.608 27.2269 22.608H26.0789V26.5H24.8189V16.504H27.4649ZM27.3529 17.582H26.0789V21.53H27.0869C27.7216 21.53 28.2489 21.4647 28.6689 21.334C29.0889 21.194 29.4016 20.9747 29.6069 20.676C29.8123 20.3773 29.9149 19.9853 29.9149 19.5C29.9149 18.856 29.7096 18.3753 29.2989 18.058C28.8883 17.7407 28.2396 17.582 27.3529 17.582ZM38.8702 26.5L37.6662 23.406H33.7042L32.5142 26.5H31.2402L35.1462 16.462H36.2802L40.1722 26.5H38.8702ZM36.1682 19.262C36.1402 19.1873 36.0936 19.052 36.0282 18.856C35.9629 18.66 35.8976 18.4593 35.8322 18.254C35.7762 18.0393 35.7296 17.876 35.6922 17.764C35.6456 17.9507 35.5942 18.142 35.5382 18.338C35.4916 18.5247 35.4402 18.6973 35.3842 18.856C35.3376 19.0147 35.2956 19.15 35.2582 19.262L34.1242 22.286H37.2882L36.1682 19.262ZM41.5396 26.5V16.504H49.0436V26.5H47.7976V17.61H42.7996V26.5H41.5396ZM60.5019 21.488C60.5019 22.2627 60.4039 22.9673 60.2079 23.602C60.0119 24.2273 59.7179 24.7687 59.3259 25.226C58.9432 25.6833 58.4625 26.0333 57.8839 26.276C57.3145 26.5187 56.6519 26.64 55.8959 26.64C55.1119 26.64 54.4305 26.5187 53.8519 26.276C53.2732 26.024 52.7925 25.674 52.4099 25.226C52.0272 24.7687 51.7425 24.2227 51.5559 23.588C51.3692 22.9533 51.2759 22.2487 51.2759 21.474C51.2759 20.4473 51.4439 19.5513 51.7799 18.786C52.1159 18.0207 52.6245 17.4233 53.3059 16.994C53.9965 16.5647 54.8645 16.35 55.9099 16.35C56.9085 16.35 57.7485 16.5647 58.4299 16.994C59.1112 17.414 59.6245 18.0113 59.9699 18.786C60.3245 19.5513 60.5019 20.452 60.5019 21.488ZM52.6059 21.488C52.6059 22.328 52.7225 23.0513 52.9559 23.658C53.1892 24.2647 53.5485 24.7313 54.0339 25.058C54.5285 25.3847 55.1492 25.548 55.8959 25.548C56.6519 25.548 57.2679 25.3847 57.7439 25.058C58.2292 24.7313 58.5885 24.2647 58.8219 23.658C59.0552 23.0513 59.1719 22.328 59.1719 21.488C59.1719 20.228 58.9105 19.2433 58.3879 18.534C57.8652 17.8153 57.0392 17.456 55.9099 17.456C55.1539 17.456 54.5285 17.6193 54.0339 17.946C53.5485 18.2633 53.1892 18.7253 52.9559 19.332C52.7225 19.9293 52.6059 20.648 52.6059 21.488ZM65.5734 16.504C66.404 16.504 67.0994 16.5833 67.6594 16.742C68.2287 16.9007 68.6534 17.162 68.9334 17.526C69.2227 17.89 69.3674 18.3753 69.3674 18.982C69.3674 19.374 69.2927 19.724 69.1434 20.032C69.0034 20.3307 68.7887 20.5827 68.4994 20.788C68.2194 20.984 67.874 21.1193 67.4634 21.194V21.264C67.8834 21.3293 68.2614 21.4507 68.5974 21.628C68.9427 21.8053 69.2134 22.0573 69.4094 22.384C69.6054 22.7107 69.7034 23.1353 69.7034 23.658C69.7034 24.2647 69.5634 24.7827 69.2834 25.212C69.0034 25.632 68.602 25.954 68.0794 26.178C67.566 26.3927 66.95 26.5 66.2314 26.5H62.7174V16.504H65.5734ZM65.8254 20.76C66.684 20.76 67.272 20.6247 67.5894 20.354C67.9067 20.074 68.0654 19.6633 68.0654 19.122C68.0654 18.5713 67.8694 18.1793 67.4774 17.946C67.0947 17.7033 66.4787 17.582 65.6294 17.582H63.9774V20.76H65.8254ZM63.9774 21.81V25.436H65.9934C66.88 25.436 67.496 25.2633 67.8414 24.918C68.1867 24.5727 68.3594 24.12 68.3594 23.56C68.3594 23.2053 68.28 22.8973 68.1214 22.636C67.972 22.3747 67.7154 22.174 67.3514 22.034C66.9967 21.8847 66.5114 21.81 65.8954 21.81H63.9774Z" fill="black"/>
<path d="M35.8049 3.3L41.8882 13.2H29.7216L35.8049 3.3Z" fill="url(#paint0_linear_2_15)"/>
<path d="M44.5854 13.2L38.5021 3.3L50.6687 3.3L44.5854 13.2Z" fill="url(#paint1_linear_2_15)"/>
<path d="M27.0244 13.2L20.9411 3.3L33.1077 3.3L27.0244 13.2Z" fill="url(#paint2_linear_2_15)"/>
<defs>
<linearGradient id="paint0_linear_2_15" x1="35.8049" y1="3.3" x2="35.8049" y2="16.5" gradientUnits="userSpaceOnUse">
<stop stop-color="#0AFFFF"/>
<stop offset="1" stop-color="#00FFC2"/>
</linearGradient>
<linearGradient id="paint1_linear_2_15" x1="44.5854" y1="13.2" x2="44.5854" y2="-2.86102e-06" gradientUnits="userSpaceOnUse">
<stop stop-color="#FA00FF"/>
<stop offset="1" stop-color="#630065"/>
</linearGradient>
<linearGradient id="paint2_linear_2_15" x1="27.0244" y1="13.2" x2="27.0244" y2="-2.86102e-06" gradientUnits="userSpaceOnUse">
<stop stop-color="#7000FF"/>
<stop offset="1" stop-color="#3C00BB"/>
</linearGradient>
</defs>
</svg>
