{
    "asset" : {
        "generator" : "Khronos glTF Blender I/O v3.2.40",
        "version" : "2.0"
    },
    "scene" : 0,
    "scenes" : [
        {
            "name" : "Scene",
            "nodes" : [
                0,
                1,
                2
            ]
        }
    ],
    "nodes" : [
        {
            "mesh" : 0,
            "name" : "t-short",
            "rotation" : [
                0.7071068286895752,
                0,
                0,
                0.7071067094802856
            ],
            "translation" : [
                0.0045416103675961494,
                0,
                0.03042375110089779
            ]
        },
        {
            "mesh" : 1,
            "name" : "Pants",
            "rotation" : [
                0.7071068286895752,
                0,
                0,
                0.7071067094802856
            ],
            "scale" : [
                1.0772302150726318,
                1.0772302150726318,
                1.0772302150726318
            ],
            "translation" : [
                0,
                0,
                0.03042375110089779
            ]
        },
        {
            "mesh" : 2,
            "name" : "BaseMesh_Man_Simple_Body.001",
            "translation" : [
                0.005710601806640625,
                0.0329132042825222,
                0
            ]
        }
    ],
    "materials" : [
        {
            "doubleSided" : true,
            "name" : "Material.002",
            "pbrMetallicRoughness" : {
                "baseColorTexture" : {
                    "index" : 0
                },
                "metallicFactor" : 0,
                "roughnessFactor" : 0.5
            }
        },
        {
            "doubleSided" : true,
            "name" : "Material.003",
            "pbrMetallicRoughness" : {
                "baseColorTexture" : {
                    "index" : 1
                },
                "metallicFactor" : 0,
                "roughnessFactor" : 0.5
            }
        },
        {
            "doubleSided" : true,
            "name" : "BASEMESH_WHITE",
            "pbrMetallicRoughness" : {
                "baseColorFactor" : [
                    0.6549019813537598,
                    0.6549019813537598,
                    0.6549019813537598,
                    1
                ],
                "metallicFactor" : 0,
                "roughnessFactor" : 0.5527864098548889
            }
        }
    ],
    "meshes" : [
        {
            "name" : "Mesh_0010_Tex_0009_0_",
            "primitives" : [
                {
                    "attributes" : {
                        "POSITION" : 0,
                        "NORMAL" : 1,
                        "TEXCOORD_0" : 2
                    },
                    "indices" : 3,
                    "material" : 0
                }
            ]
        },
        {
            "name" : "Mesh_0011_Tex_0011_0_.001",
            "primitives" : [
                {
                    "attributes" : {
                        "POSITION" : 4,
                        "NORMAL" : 5,
                        "TEXCOORD_0" : 6
                    },
                    "indices" : 7,
                    "material" : 1
                }
            ]
        },
        {
            "name" : "Mesh.006",
            "primitives" : [
                {
                    "attributes" : {
                        "POSITION" : 8,
                        "NORMAL" : 9,
                        "TEXCOORD_0" : 10
                    },
                    "indices" : 11,
                    "material" : 2
                }
            ]
        }
    ],
    "textures" : [
        {
            "sampler" : 0,
            "source" : 0
        },
        {
            "sampler" : 0,
            "source" : 1
        }
    ],
    "images" : [
        {
            "bufferView" : 4,
            "mimeType" : "image/png",
            "name" : "Craig_shirt_Diffuse"
        },
        {
            "bufferView" : 9,
            "mimeType" : "image/png",
            "name" : "Craig_pant_Diffuse.dds"
        }
    ],
    "accessors" : [
        {
            "bufferView" : 0,
            "componentType" : 5126,
            "count" : 807,
            "max" : [
                0.21414156258106232,
                0.16342544555664062,
                -0.9730902314186096
            ],
            "min" : [
                -0.21414156258106232,
                -0.1497386246919632,
                -1.5979021787643433
            ],
            "type" : "VEC3"
        },
        {
            "bufferView" : 1,
            "componentType" : 5126,
            "count" : 807,
            "type" : "VEC3"
        },
        {
            "bufferView" : 2,
            "componentType" : 5126,
            "count" : 807,
            "type" : "VEC2"
        },
        {
            "bufferView" : 3,
            "componentType" : 5123,
            "count" : 4128,
            "type" : "SCALAR"
        },
        {
            "bufferView" : 5,
            "componentType" : 5126,
            "count" : 836,
            "max" : [
                0.1937052607536316,
                0.1377243995666504,
                -0.07915376126766205
            ],
            "min" : [
                -0.19092023372650146,
                -0.13035856187343597,
                -0.9536148309707642
            ],
            "type" : "VEC3"
        },
        {
            "bufferView" : 6,
            "componentType" : 5126,
            "count" : 836,
            "type" : "VEC3"
        },
        {
            "bufferView" : 7,
            "componentType" : 5126,
            "count" : 836,
            "type" : "VEC2"
        },
        {
            "bufferView" : 8,
            "componentType" : 5123,
            "count" : 4404,
            "type" : "SCALAR"
        },
        {
            "bufferView" : 10,
            "componentType" : 5126,
            "count" : 5951,
            "max" : [
                0.900188684463501,
                1.807038426399231,
                0.21035337448120117
            ],
            "min" : [
                -0.900188684463501,
                -0.005422047805041075,
                -0.10761848092079163
            ],
            "type" : "VEC3"
        },
        {
            "bufferView" : 11,
            "componentType" : 5126,
            "count" : 5951,
            "type" : "VEC3"
        },
        {
            "bufferView" : 12,
            "componentType" : 5126,
            "count" : 5951,
            "type" : "VEC2"
        },
        {
            "bufferView" : 13,
            "componentType" : 5123,
            "count" : 29952,
            "type" : "SCALAR"
        }
    ],
    "bufferViews" : [
        {
            "buffer" : 0,
            "byteLength" : 9684,
            "byteOffset" : 0
        },
        {
            "buffer" : 0,
            "byteLength" : 9684,
            "byteOffset" : 9684
        },
        {
            "buffer" : 0,
            "byteLength" : 6456,
            "byteOffset" : 19368
        },
        {
            "buffer" : 0,
            "byteLength" : 8256,
            "byteOffset" : 25824
        },
        {
            "buffer" : 0,
            "byteLength" : 197833,
            "byteOffset" : 34080
        },
        {
            "buffer" : 0,
            "byteLength" : 10032,
            "byteOffset" : 231916
        },
        {
            "buffer" : 0,
            "byteLength" : 10032,
            "byteOffset" : 241948
        },
        {
            "buffer" : 0,
            "byteLength" : 6688,
            "byteOffset" : 251980
        },
        {
            "buffer" : 0,
            "byteLength" : 8808,
            "byteOffset" : 258668
        },
        {
            "buffer" : 0,
            "byteLength" : 1067959,
            "byteOffset" : 267476
        },
        {
            "buffer" : 0,
            "byteLength" : 71412,
            "byteOffset" : 1335436
        },
        {
            "buffer" : 0,
            "byteLength" : 71412,
            "byteOffset" : 1406848
        },
        {
            "buffer" : 0,
            "byteLength" : 47608,
            "byteOffset" : 1478260
        },
        {
            "buffer" : 0,
            "byteLength" : 59904,
            "byteOffset" : 1525868
        }
    ],
    "samplers" : [
        {
            "magFilter" : 9729,
            "minFilter" : 9987
        }
    ],
    "buffers" : [
        {
            "byteLength" : 1585772,
            "uri" : "data:application/octet-stream;base64,"
        }
    ]
}
