{
    "asset" : {
        "generator" : "Khronos glTF Blender I/O v3.2.40",
        "version" : "2.0"
    },
    "scene" : 0,
    "scenes" : [
        {
            "name" : "Scene",
            "nodes" : [
                0
            ]
        }
    ],
    "nodes" : [
        {
            "mesh" : 0,
            "name" : "BaseMesh_Man_Simple_Body.001",
            "translation" : [
                0.005710601806640625,
                0.0329132042825222,
                0
            ]
        }
    ],
    "materials" : [
        {
            "doubleSided" : true,
            "name" : "BASEMESH_WHITE",
            "pbrMetallicRoughness" : {
                "baseColorFactor" : [
                    0.6549019813537598,
                    0.6549019813537598,
                    0.6549019813537598,
                    1
                ],
                "metallicFactor" : 0,
                "roughnessFactor" : 0.5527864098548889
            }
        }
    ],
    "meshes" : [
        {
            "name" : "Mesh.006",
            "primitives" : [
                {
                    "attributes" : {
                        "POSITION" : 0,
                        "NORMAL" : 1,
                        "TEXCOORD_0" : 2
                    },
                    "indices" : 3,
                    "material" : 0
                }
            ]
        }
    ],
    "accessors" : [
        {
            "bufferView" : 0,
            "componentType" : 5126,
            "count" : 5951,
            "max" : [
                0.900188684463501,
                1.807038426399231,
                0.21035337448120117
            ],
            "min" : [
                -0.900188684463501,
                -0.005422047805041075,
                -0.10761848092079163
            ],
            "type" : "VEC3"
        },
        {
            "bufferView" : 1,
            "componentType" : 5126,
            "count" : 5951,
            "type" : "VEC3"
        },
        {
            "bufferView" : 2,
            "componentType" : 5126,
            "count" : 5951,
            "type" : "VEC2"
        },
        {
            "bufferView" : 3,
            "componentType" : 5123,
            "count" : 29952,
            "type" : "SCALAR"
        }
    ],
    "bufferViews" : [
        {
            "buffer" : 0,
            "byteLength" : 71412,
            "byteOffset" : 0
        },
        {
            "buffer" : 0,
            "byteLength" : 71412,
            "byteOffset" : 71412
        },
        {
            "buffer" : 0,
            "byteLength" : 47608,
            "byteOffset" : 142824
        },
        {
            "buffer" : 0,
            "byteLength" : 59904,
            "byteOffset" : 190432
        }
    ],
    "buffers" : [
        {
            "byteLength" : 250336,
            "uri" : "data:application/octet-stream;base64,"
        }
    ]
}
