{
    "asset" : {
        "generator" : "Khronos glTF Blender I/O v3.2.40",
        "version" : "2.0"
    },
    "scene" : 0,
    "scenes" : [
        {
            "name" : "Scene",
            "nodes" : [
                0,
                1
            ]
        }
    ],
    "nodes" : [
        {
            "mesh" : 0,
            "name" : "Pants",
            "rotation" : [
                0.7071068286895752,
                0,
                0,
                0.7071067094802856
            ],
            "scale" : [
                1.0772302150726318,
                1.0772302150726318,
                1.0772302150726318
            ],
            "translation" : [
                0,
                0,
                0.03042375110089779
            ]
        },
        {
            "mesh" : 1,
            "name" : "BaseMesh_Man_Simple_Body.001",
            "translation" : [
                0.005710601806640625,
                0.0329132042825222,
                0
            ]
        }
    ],
    "materials" : [
        {
            "doubleSided" : true,
            "name" : "Material.003",
            "pbrMetallicRoughness" : {
                "baseColorTexture" : {
                    "index" : 0
                },
                "metallicFactor" : 0,
                "roughnessFactor" : 0.5
            }
        },
        {
            "doubleSided" : true,
            "name" : "BASEMESH_WHITE",
            "pbrMetallicRoughness" : {
                "baseColorFactor" : [
                    0.6549019813537598,
                    0.6549019813537598,
                    0.6549019813537598,
                    1
                ],
                "metallicFactor" : 0,
                "roughnessFactor" : 0.5527864098548889
            }
        }
    ],
    "meshes" : [
        {
            "name" : "Mesh_0011_Tex_0011_0_.001",
            "primitives" : [
                {
                    "attributes" : {
                        "POSITION" : 0,
                        "NORMAL" : 1,
                        "TEXCOORD_0" : 2
                    },
                    "indices" : 3,
                    "material" : 0
                }
            ]
        },
        {
            "name" : "Mesh.006",
            "primitives" : [
                {
                    "attributes" : {
                        "POSITION" : 4,
                        "NORMAL" : 5,
                        "TEXCOORD_0" : 6
                    },
                    "indices" : 7,
                    "material" : 1
                }
            ]
        }
    ],
    "textures" : [
        {
            "sampler" : 0,
            "source" : 0
        }
    ],
    "images" : [
        {
            "bufferView" : 4,
            "mimeType" : "image/png",
            "name" : "Craig_pant_Diffuse.dds"
        }
    ],
    "accessors" : [
        {
            "bufferView" : 0,
            "componentType" : 5126,
            "count" : 836,
            "max" : [
                0.1937052607536316,
                0.1377243995666504,
                -0.07915376126766205
            ],
            "min" : [
                -0.19092023372650146,
                -0.13035856187343597,
                -0.9536148309707642
            ],
            "type" : "VEC3"
        },
        {
            "bufferView" : 1,
            "componentType" : 5126,
            "count" : 836,
            "type" : "VEC3"
        },
        {
            "bufferView" : 2,
            "componentType" : 5126,
            "count" : 836,
            "type" : "VEC2"
        },
        {
            "bufferView" : 3,
            "componentType" : 5123,
            "count" : 4404,
            "type" : "SCALAR"
        },
        {
            "bufferView" : 5,
            "componentType" : 5126,
            "count" : 5951,
            "max" : [
                0.900188684463501,
                1.807038426399231,
                0.21035337448120117
            ],
            "min" : [
                -0.900188684463501,
                -0.005422047805041075,
                -0.10761848092079163
            ],
            "type" : "VEC3"
        },
        {
            "bufferView" : 6,
            "componentType" : 5126,
            "count" : 5951,
            "type" : "VEC3"
        },
        {
            "bufferView" : 7,
            "componentType" : 5126,
            "count" : 5951,
            "type" : "VEC2"
        },
        {
            "bufferView" : 8,
            "componentType" : 5123,
            "count" : 29952,
            "type" : "SCALAR"
        }
    ],
    "bufferViews" : [
        {
            "buffer" : 0,
            "byteLength" : 10032,
            "byteOffset" : 0
        },
        {
            "buffer" : 0,
            "byteLength" : 10032,
            "byteOffset" : 10032
        },
        {
            "buffer" : 0,
            "byteLength" : 6688,
            "byteOffset" : 20064
        },
        {
            "buffer" : 0,
            "byteLength" : 8808,
            "byteOffset" : 26752
        },
        {
            "buffer" : 0,
            "byteLength" : 1067959,
            "byteOffset" : 35560
        },
        {
            "buffer" : 0,
            "byteLength" : 71412,
            "byteOffset" : 1103520
        },
        {
            "buffer" : 0,
            "byteLength" : 71412,
            "byteOffset" : 1174932
        },
        {
            "buffer" : 0,
            "byteLength" : 47608,
            "byteOffset" : 1246344
        },
        {
            "buffer" : 0,
            "byteLength" : 59904,
            "byteOffset" : 1293952
        }
    ],
    "samplers" : [
        {
            "magFilter" : 9729,
            "minFilter" : 9987
        }
    ],
    "buffers" : [
        {
            "byteLength" : 1353856,
            "uri" : "data:application/octet-stream;base64,"
        }
    ]
}
